# xmcd CD database file
#
# Track frame offsets:
#	150
#	14842
#	31837
#	45133
#	61177
#	76470
#	95699
#	108466
#	120036
#	139184
#	156231
#	173699
#	184050
#	203884
#
# Disc length: 2932 seconds
#
# Revision: 0
# Processed by: cddbd v1.5.1PL2 Copyright (c) Steve Scherf et al.
# Submitted via: CDex 1.51
#
DISCID=ae0b720e
DTITLE=Country Dance Kings - A Salute to the Songs of Garth Brooks
DYEAR=1900
DGENRE=Country
TTITLE0=Good Ride Cowboy
TTITLE1=Ain't Goin Down (Til the Sun Comes Up)
TTITLE2=She's Every Woman 
TTITLE3=American Honky-Tonk Bar Association
TTITLE4=Friends In Low Places
TTITLE5=If Tomorrow Never Comes
TTITLE6=Papa Loves Mama
TTITLE7=Whatcha Gonna Do With A Cowboy
TTITLE8=The Beaches of Cheyenne
TTITLE9=Standing Outside The Fire
TTITLE10=To Make You Feel My Love
TTITLE11=Against The Grain
TTITLE12=You Move Me
TTITLE13=The Dance
EXTD=
EXTT0=
EXTT1=
EXTT2=
EXTT3=
EXTT4=
EXTT5=
EXTT6=
EXTT7=
EXTT8=
EXTT9=
EXTT10=
EXTT11=
EXTT12=
EXTT13=
PLAYORDER=
